<svg width="738" height="174" viewBox="0 0 738 174" fill="none" xmlns="http://www.w3.org/2000/svg">
<path d="M73.472 120.864C73.472 124.875 72.6187 127.861 70.912 129.824C69.2053 131.701 66.9867 132.768 64.256 133.024C61.8667 133.195 59.648 132.853 57.6 132C55.3813 131.317 53.632 130.208 52.352 128.672C51.072 127.136 50.176 125.216 49.664 122.912H49.024C46.6347 125.984 43.648 128.416 40.064 130.208C36.5653 131.915 32.5973 132.853 28.16 133.024C26.2827 133.195 24.3627 133.195 22.4 133.024C17.6213 132.427 13.7813 130.805 10.88 128.16C8.064 125.429 6.656 121.973 6.656 117.792C6.656 114.123 7.552 110.965 9.344 108.32C11.2213 105.675 14.6773 103.456 19.712 101.664C20.992 101.152 22.2293 100.725 23.424 100.384C29.2267 98.5067 33.8347 96.9707 37.248 95.776C40.6613 94.496 43.1787 93.4293 44.8 92.576C46.4213 91.7227 47.4453 90.8267 47.872 89.888C48.384 88.9493 48.64 87.84 48.64 86.56C48.64 86.304 48.64 86.048 48.64 85.792C48.64 85.4507 48.5973 85.1947 48.512 85.024C48.3413 82.464 47.6587 80.16 46.464 78.112C45.2693 76.064 43.4347 74.4427 40.96 73.248C38.5707 72.0533 35.4987 71.456 31.744 71.456C31.4027 71.456 31.0613 71.456 30.72 71.456C30.3787 71.456 30.0373 71.4987 29.696 71.584C26.2827 71.84 23.4667 72.608 21.248 73.888C19.1147 75.0827 17.4507 76.3627 16.256 77.728C16.512 77.8133 16.768 77.8987 17.024 77.984C17.28 77.984 17.4933 78.0267 17.664 78.112C18.944 78.2827 19.968 78.88 20.736 79.904C21.504 80.8427 21.888 81.952 21.888 83.232C21.888 85.3653 21.2053 86.944 19.84 87.968C18.4747 88.992 16.896 89.504 15.104 89.504C14.7627 89.504 14.4213 89.4613 14.08 89.376C13.824 89.2907 13.568 89.2053 13.312 89.12C11.9467 88.864 10.7947 88.1813 9.856 87.072C8.91733 85.9627 8.448 84.512 8.448 82.72C8.448 82.6347 8.448 82.5493 8.448 82.464C8.448 82.3787 8.448 82.2933 8.448 82.208C8.53333 79.9893 9.64267 77.6853 11.776 75.296C13.9093 72.9067 16.896 70.944 20.736 69.408C24.6613 67.7867 29.2693 66.976 34.56 66.976C43.008 66.976 49.3653 68.7253 53.632 72.224C57.8987 75.7227 60.0747 81.3973 60.16 89.248C60.2453 89.5893 60.288 89.9733 60.288 90.4C60.288 90.8267 60.288 91.2533 60.288 91.68V121.888C60.288 124.192 60.672 125.856 61.44 126.88C62.208 127.904 63.232 128.416 64.512 128.416C64.768 128.416 64.9813 128.416 65.152 128.416C65.3227 128.331 65.536 128.203 65.792 128.032C66.6453 127.776 67.328 127.264 67.84 126.496C68.4373 125.643 68.864 124.491 69.12 123.04C69.12 122.699 69.12 122.315 69.12 121.888C69.2053 121.461 69.248 120.992 69.248 120.48V116.896H73.472V120.864ZM30.72 127.776C34.816 127.776 38.4 126.795 41.472 124.832C44.544 122.784 46.6347 120.139 47.744 116.896C48 116.043 48.2133 115.147 48.384 114.208C48.5547 113.269 48.64 112.331 48.64 111.392V95.392C45.9947 96.8427 43.2213 98.08 40.32 99.104C37.504 100.043 34.7733 100.981 32.128 101.92C29.568 102.773 27.2213 103.797 25.088 104.992C23.04 106.101 21.4187 107.552 20.224 109.344C19.0293 111.051 18.432 113.269 18.432 116C18.432 120.011 19.584 122.997 21.888 124.96C24.192 126.837 27.136 127.776 30.72 127.776ZM111.95 127.904V132H81.102V127.904H88.27C89.3793 127.904 90.19 127.563 90.702 126.88C91.214 126.197 91.47 125.173 91.47 123.808V76.448C91.47 75.0827 91.214 74.1013 90.702 73.504C90.19 72.8213 89.3793 72.48 88.27 72.48H81.102V68.256H102.734V81.184H103.374C106.446 77.088 110.03 73.7173 114.126 71.072C118.222 68.3413 122.958 66.976 128.334 66.976C134.905 66.976 139.982 68.8107 143.566 72.48C147.15 76.064 148.942 81.2267 148.942 87.968V123.936C148.942 125.301 149.198 126.325 149.71 127.008C150.307 127.605 151.161 127.904 152.27 127.904H159.31V132H128.462V127.904H134.094C135.203 127.904 136.014 127.563 136.526 126.88C137.038 126.197 137.294 125.131 137.294 123.68V86.56C137.294 82.208 136.227 78.8373 134.094 76.448C132.046 73.9733 128.931 72.736 124.75 72.736C120.142 72.736 116.003 74.272 112.334 77.344C108.665 80.416 105.593 84.128 103.118 88.48V123.68C103.118 125.131 103.374 126.197 103.886 126.88C104.398 127.563 105.209 127.904 106.318 127.904H111.95ZM219.395 120.352H218.755C216.451 124.619 213.379 127.861 209.539 130.08C205.784 132.213 201.56 133.28 196.867 133.28C191.491 133.28 186.584 132 182.147 129.44C177.71 126.795 174.168 123.04 171.523 118.176C168.878 113.227 167.555 107.296 167.555 100.384C167.555 93.3013 168.878 87.2853 171.523 82.336C174.168 77.3013 177.71 73.504 182.147 70.944C186.67 68.2987 191.662 66.976 197.123 66.976C201.475 66.976 205.486 68 209.155 70.048C212.824 72.096 215.811 75.0827 218.115 79.008V48.032C218.115 46.6667 217.859 45.6427 217.347 44.96C216.835 44.2773 215.982 43.936 214.787 43.936H208.131V39.84H229.635V123.936C229.635 125.301 229.891 126.325 230.403 127.008C231 127.605 231.854 127.904 232.963 127.904H239.619V132H219.395V120.352ZM218.499 100.768C218.499 91.296 216.878 84.1707 213.635 79.392C210.392 74.528 205.614 72.096 199.299 72.096C192.984 72.096 188.163 74.4853 184.835 79.264C181.592 84.0427 179.971 91.0827 179.971 100.384C179.971 109.6 181.592 116.597 184.835 121.376C188.163 126.069 192.984 128.416 199.299 128.416C205.614 128.416 210.392 126.069 213.635 121.376C216.878 116.683 218.499 109.813 218.499 100.768ZM281.897 127.904V132H247.977V127.904H255.145C256.34 127.904 257.15 127.563 257.577 126.88C258.089 126.197 258.345 125.173 258.345 123.808V76.448C258.345 75.0827 258.089 74.1013 257.577 73.504C257.15 72.8213 256.34 72.48 255.145 72.48H247.977V68.256H269.609V82.208H270.249C272.894 77.6853 276.009 74.016 279.593 71.2C283.177 68.384 286.974 66.976 290.985 66.976C294.398 66.976 297.044 67.9147 298.921 69.792C300.884 71.6693 301.865 73.888 301.865 76.448C301.865 78.6667 301.182 80.416 299.817 81.696C298.537 82.976 296.958 83.616 295.081 83.616C293.204 83.616 291.625 83.104 290.345 82.08C289.065 81.056 288.425 79.5627 288.425 77.6C288.425 75.808 289.15 74.528 290.601 73.76C290.26 73.5893 289.876 73.4613 289.449 73.376C289.022 73.2907 288.553 73.248 288.041 73.248C285.737 73.248 283.476 74.0587 281.257 75.68C279.124 77.216 277.076 79.3067 275.113 81.952C273.15 84.5973 271.444 87.5413 269.993 90.784V123.68C269.993 125.131 270.206 126.197 270.633 126.88C271.145 127.563 271.998 127.904 273.193 127.904H281.897ZM372.778 100.128C372.778 107.125 371.37 113.099 368.554 118.048C365.823 122.997 362.069 126.795 357.29 129.44C352.511 132 347.178 133.28 341.29 133.28C335.487 133.28 330.197 132 325.418 129.44C320.639 126.795 316.842 122.997 314.026 118.048C311.21 113.099 309.802 107.125 309.802 100.128C309.802 93.1307 311.21 87.1573 314.026 82.208C316.842 77.2587 320.639 73.504 325.418 70.944C330.197 68.2987 335.487 66.976 341.29 66.976C347.178 66.976 352.511 68.2987 357.29 70.944C362.069 73.504 365.823 77.2587 368.554 82.208C371.37 87.1573 372.778 93.1307 372.778 100.128ZM322.218 100C322.218 109.472 323.839 116.725 327.082 121.76C330.41 126.709 335.146 129.184 341.29 129.184C347.519 129.184 352.255 126.709 355.498 121.76C358.826 116.725 360.49 109.472 360.49 100C360.49 90.6133 358.826 83.488 355.498 78.624C352.255 73.6747 347.519 71.2 341.29 71.2C335.146 71.2 330.41 73.6747 327.082 78.624C323.839 83.488 322.218 90.6133 322.218 100ZM413.7 127.904V132H382.852V127.904H390.02C391.129 127.904 391.94 127.563 392.452 126.88C392.964 126.197 393.22 125.173 393.22 123.808V76.448C393.22 75.0827 392.964 74.1013 392.452 73.504C391.94 72.8213 391.129 72.48 390.02 72.48H382.852V68.256H404.484V81.184H405.124C408.196 77.0027 411.652 73.5893 415.492 70.944C419.417 68.2987 423.983 66.976 429.188 66.976C434.479 66.976 438.745 68.256 441.988 70.816C445.231 73.376 447.279 77.0453 448.132 81.824H448.516C451.844 77.3013 455.428 73.7173 459.268 71.072C463.108 68.3413 467.759 66.976 473.22 66.976C479.535 66.976 484.399 68.8107 487.812 72.48C491.225 76.064 492.932 81.2267 492.932 87.968V123.936C492.932 125.301 493.188 126.325 493.7 127.008C494.297 127.605 495.151 127.904 496.26 127.904H503.3V132H472.452V127.904H478.084C479.279 127.904 480.132 127.563 480.644 126.88C481.156 126.197 481.412 125.131 481.412 123.68V86.56C481.412 82.208 480.431 78.8373 478.468 76.448C476.505 73.9733 473.561 72.736 469.636 72.736C465.199 72.736 461.273 74.272 457.86 77.344C454.447 80.416 451.46 84.128 448.9 88.48V123.936C448.9 125.301 449.156 126.325 449.668 127.008C450.265 127.605 451.119 127.904 452.228 127.904H458.244V132H428.42V127.904H434.052C435.247 127.904 436.057 127.563 436.484 126.88C436.996 126.197 437.252 125.131 437.252 123.68V86.56C437.252 82.208 436.271 78.8373 434.308 76.448C432.345 73.9733 429.444 72.736 425.604 72.736C421.167 72.736 417.199 74.272 413.7 77.344C410.287 80.416 407.343 84.128 404.868 88.48V123.68C404.868 125.131 405.124 126.197 405.636 126.88C406.148 127.563 406.959 127.904 408.068 127.904H413.7ZM571.078 111.648C569.627 118.645 566.555 124.021 561.862 127.776C557.169 131.445 550.982 133.28 543.302 133.28C537.329 133.28 531.91 132 527.046 129.44C522.267 126.795 518.47 122.997 515.654 118.048C512.838 113.099 511.43 107.125 511.43 100.128C511.43 93.1307 512.795 87.1573 515.526 82.208C518.257 77.2587 521.969 73.504 526.662 70.944C531.355 68.2987 536.603 66.976 542.406 66.976C547.953 66.976 552.945 68.2133 557.382 70.688C561.905 73.1627 565.446 76.7893 568.006 81.568C570.651 86.2613 571.974 92.1493 571.974 99.232H523.59C523.59 99.744 523.59 100.213 523.59 100.64C523.675 101.067 523.718 101.493 523.718 101.92C523.889 110.624 525.809 117.28 529.478 121.888C533.233 126.411 538.395 128.672 544.966 128.672C545.649 128.672 546.289 128.672 546.886 128.672C547.569 128.587 548.166 128.501 548.678 128.416C553.371 127.904 557.169 126.283 560.07 123.552C562.971 120.736 565.019 116.768 566.214 111.648H571.078ZM542.534 71.2C536.902 71.2 532.465 73.2053 529.222 77.216C526.065 81.2267 524.273 87.1573 523.846 95.008H560.838C560.667 87.1573 559.003 81.2267 555.846 77.216C552.689 73.2053 548.251 71.2 542.534 71.2ZM636.77 120.352H636.13C633.826 124.619 630.754 127.861 626.914 130.08C623.159 132.213 618.935 133.28 614.242 133.28C608.866 133.28 603.959 132 599.522 129.44C595.085 126.795 591.543 123.04 588.898 118.176C586.253 113.227 584.93 107.296 584.93 100.384C584.93 93.3013 586.253 87.2853 588.898 82.336C591.543 77.3013 595.085 73.504 599.522 70.944C604.045 68.2987 609.037 66.976 614.498 66.976C618.85 66.976 622.861 68 626.53 70.048C630.199 72.096 633.186 75.0827 635.49 79.008V48.032C635.49 46.6667 635.234 45.6427 634.722 44.96C634.21 44.2773 633.357 43.936 632.162 43.936H625.506V39.84H647.01V123.936C647.01 125.301 647.266 126.325 647.778 127.008C648.375 127.605 649.229 127.904 650.338 127.904H656.994V132H636.77V120.352ZM635.874 100.768C635.874 91.296 634.253 84.1707 631.01 79.392C627.767 74.528 622.989 72.096 616.674 72.096C610.359 72.096 605.538 74.4853 602.21 79.264C598.967 84.0427 597.346 91.0827 597.346 100.384C597.346 109.6 598.967 116.597 602.21 121.376C605.538 126.069 610.359 128.416 616.674 128.416C622.989 128.416 627.767 126.069 631.01 121.376C634.253 116.683 635.874 109.813 635.874 100.768ZM734.472 120.864C734.472 124.875 733.619 127.861 731.912 129.824C730.205 131.701 727.987 132.768 725.256 133.024C722.867 133.195 720.648 132.853 718.6 132C716.381 131.317 714.632 130.208 713.352 128.672C712.072 127.136 711.176 125.216 710.664 122.912H710.024C707.635 125.984 704.648 128.416 701.064 130.208C697.565 131.915 693.597 132.853 689.16 133.024C687.283 133.195 685.363 133.195 683.4 133.024C678.621 132.427 674.781 130.805 671.88 128.16C669.064 125.429 667.656 121.973 667.656 117.792C667.656 114.123 668.552 110.965 670.344 108.32C672.221 105.675 675.677 103.456 680.712 101.664C681.992 101.152 683.229 100.725 684.424 100.384C690.227 98.5067 694.835 96.9707 698.248 95.776C701.661 94.496 704.179 93.4293 705.8 92.576C707.421 91.7227 708.445 90.8267 708.872 89.888C709.384 88.9493 709.64 87.84 709.64 86.56C709.64 86.304 709.64 86.048 709.64 85.792C709.64 85.4507 709.597 85.1947 709.512 85.024C709.341 82.464 708.659 80.16 707.464 78.112C706.269 76.064 704.435 74.4427 701.96 73.248C699.571 72.0533 696.499 71.456 692.744 71.456C692.403 71.456 692.061 71.456 691.72 71.456C691.379 71.456 691.037 71.4987 690.696 71.584C687.283 71.84 684.467 72.608 682.248 73.888C680.115 75.0827 678.451 76.3627 677.256 77.728C677.512 77.8133 677.768 77.8987 678.024 77.984C678.28 77.984 678.493 78.0267 678.664 78.112C679.944 78.2827 680.968 78.88 681.736 79.904C682.504 80.8427 682.888 81.952 682.888 83.232C682.888 85.3653 682.205 86.944 680.84 87.968C679.475 88.992 677.896 89.504 676.104 89.504C675.763 89.504 675.421 89.4613 675.08 89.376C674.824 89.2907 674.568 89.2053 674.312 89.12C672.947 88.864 671.795 88.1813 670.856 87.072C669.917 85.9627 669.448 84.512 669.448 82.72C669.448 82.6347 669.448 82.5493 669.448 82.464C669.448 82.3787 669.448 82.2933 669.448 82.208C669.533 79.9893 670.643 77.6853 672.776 75.296C674.909 72.9067 677.896 70.944 681.736 69.408C685.661 67.7867 690.269 66.976 695.56 66.976C704.008 66.976 710.365 68.7253 714.632 72.224C718.899 75.7227 721.075 81.3973 721.16 89.248C721.245 89.5893 721.288 89.9733 721.288 90.4C721.288 90.8267 721.288 91.2533 721.288 91.68V121.888C721.288 124.192 721.672 125.856 722.44 126.88C723.208 127.904 724.232 128.416 725.512 128.416C725.768 128.416 725.981 128.416 726.152 128.416C726.323 128.331 726.536 128.203 726.792 128.032C727.645 127.776 728.328 127.264 728.84 126.496C729.437 125.643 729.864 124.491 730.12 123.04C730.12 122.699 730.12 122.315 730.12 121.888C730.205 121.461 730.248 120.992 730.248 120.48V116.896H734.472V120.864ZM691.72 127.776C695.816 127.776 699.4 126.795 702.472 124.832C705.544 122.784 707.635 120.139 708.744 116.896C709 116.043 709.213 115.147 709.384 114.208C709.555 113.269 709.64 112.331 709.64 111.392V95.392C706.995 96.8427 704.221 98.08 701.32 99.104C698.504 100.043 695.773 100.981 693.128 101.92C690.568 102.773 688.221 103.797 686.088 104.992C684.04 106.101 682.419 107.552 681.224 109.344C680.029 111.051 679.432 113.269 679.432 116C679.432 120.011 680.584 122.997 682.888 124.96C685.192 126.837 688.136 127.776 691.72 127.776Z" fill="#ECEDEE"/>
</svg>
