<svg width="637" height="174" viewBox="0 0 637 174" fill="none" xmlns="http://www.w3.org/2000/svg">
<path d="M25.472 39.84V123.68C25.472 125.131 25.728 126.197 26.24 126.88C26.8373 127.563 27.6907 127.904 28.8 127.904H35.84V132H3.456V127.904H10.624C11.8187 127.904 12.672 127.563 13.184 126.88C13.696 126.197 13.952 125.173 13.952 123.808V48.032C13.952 46.6667 13.696 45.6427 13.184 44.96C12.672 44.2773 11.8187 43.936 10.624 43.936H3.456V39.84H25.472ZM59.087 56.864C56.8683 56.864 55.0337 56.224 53.583 54.944C52.2177 53.5787 51.535 51.7867 51.535 49.568C51.535 47.264 52.2177 45.472 53.583 44.192C55.0337 42.8267 56.8683 42.144 59.087 42.144C61.4763 42.144 63.3537 42.8267 64.719 44.192C66.1697 45.472 66.895 47.264 66.895 49.568C66.895 51.7867 66.1697 53.5787 64.719 54.944C63.3537 56.224 61.4763 56.864 59.087 56.864ZM65.743 68.256V123.68C65.743 125.131 65.999 126.197 66.511 126.88C67.023 127.563 67.8337 127.904 68.943 127.904H76.111V132H43.727V127.904H50.895C52.0043 127.904 52.815 127.563 53.327 126.88C53.839 126.197 54.095 125.173 54.095 123.808V76.448C54.095 75.0827 53.839 74.1013 53.327 73.504C52.815 72.8213 52.0043 72.48 50.895 72.48H43.727V68.256H65.743ZM114.825 127.904V132H83.977V127.904H91.145C92.2543 127.904 93.065 127.563 93.577 126.88C94.089 126.197 94.345 125.173 94.345 123.808V76.448C94.345 75.0827 94.089 74.1013 93.577 73.504C93.065 72.8213 92.2543 72.48 91.145 72.48H83.977V68.256H105.609V81.184H106.249C109.321 77.088 112.905 73.7173 117.001 71.072C121.097 68.3413 125.833 66.976 131.209 66.976C137.78 66.976 142.857 68.8107 146.441 72.48C150.025 76.064 151.817 81.2267 151.817 87.968V123.936C151.817 125.301 152.073 126.325 152.585 127.008C153.182 127.605 154.036 127.904 155.145 127.904H162.185V132H131.337V127.904H136.969C138.078 127.904 138.889 127.563 139.401 126.88C139.913 126.197 140.169 125.131 140.169 123.68V86.56C140.169 82.208 139.102 78.8373 136.969 76.448C134.921 73.9733 131.806 72.736 127.625 72.736C123.017 72.736 118.878 74.272 115.209 77.344C111.54 80.416 108.468 84.128 105.993 88.48V123.68C105.993 125.131 106.249 126.197 106.761 126.88C107.273 127.563 108.084 127.904 109.193 127.904H114.825ZM200.45 127.904V132H168.706V127.904H175.874C177.069 127.904 177.922 127.563 178.434 126.88C178.946 126.197 179.202 125.173 179.202 123.808V48.032C179.202 46.6667 178.946 45.6427 178.434 44.96C177.922 44.2773 177.069 43.936 175.874 43.936H168.706V39.84H190.722V101.664L217.346 77.472C219.053 76.1067 219.65 74.9547 219.138 74.016C218.711 72.992 217.602 72.48 215.81 72.48H211.33V68.256H240.13V72.48H237.57C234.839 72.48 232.322 72.992 230.018 74.016C227.799 75.04 224.983 77.0453 221.57 80.032L211.074 89.76L231.81 121.376C233.431 123.765 235.01 125.472 236.546 126.496C238.082 127.435 240.045 127.904 242.434 127.904H244.738V132H214.018V127.904H217.858C219.394 127.904 220.333 127.477 220.674 126.624C221.101 125.685 220.802 124.448 219.778 122.912L202.754 96.416L190.722 107.168V123.68C190.722 125.131 190.978 126.197 191.49 126.88C192.087 127.563 192.941 127.904 194.05 127.904H200.45ZM348.543 72.48C346.58 72.48 345.087 72.9493 344.063 73.888C343.124 74.7413 342.314 76.3627 341.631 78.752L325.887 132H316.927L299.135 81.696L282.367 132H272.767L255.487 77.728C254.719 75.5947 253.951 74.1867 253.183 73.504C252.415 72.8213 251.263 72.48 249.727 72.48H245.631V68.256H275.711V72.48H270.975C269.012 72.48 267.818 72.9067 267.391 73.76C267.05 74.528 267.135 75.808 267.647 77.6L280.959 122.016L295.295 77.6C295.892 75.552 295.892 74.1867 295.295 73.504C294.783 72.8213 293.631 72.48 291.839 72.48H288.895V68.256H315.903V72.48H312.447C310.484 72.48 309.29 72.9067 308.863 73.76C308.436 74.528 308.522 75.808 309.119 77.6L323.967 121.632L336.511 77.984C337.108 75.7653 337.108 74.3147 336.511 73.632C335.999 72.864 334.932 72.48 333.311 72.48H328.959V68.256H351.743V72.48H348.543ZM415.453 111.648C414.002 118.645 410.93 124.021 406.237 127.776C401.544 131.445 395.357 133.28 387.677 133.28C381.704 133.28 376.285 132 371.421 129.44C366.642 126.795 362.845 122.997 360.029 118.048C357.213 113.099 355.805 107.125 355.805 100.128C355.805 93.1307 357.17 87.1573 359.901 82.208C362.632 77.2587 366.344 73.504 371.037 70.944C375.73 68.2987 380.978 66.976 386.781 66.976C392.328 66.976 397.32 68.2133 401.757 70.688C406.28 73.1627 409.821 76.7893 412.381 81.568C415.026 86.2613 416.349 92.1493 416.349 99.232H367.965C367.965 99.744 367.965 100.213 367.965 100.64C368.05 101.067 368.093 101.493 368.093 101.92C368.264 110.624 370.184 117.28 373.853 121.888C377.608 126.411 382.77 128.672 389.341 128.672C390.024 128.672 390.664 128.672 391.261 128.672C391.944 128.587 392.541 128.501 393.053 128.416C397.746 127.904 401.544 126.283 404.445 123.552C407.346 120.736 409.394 116.768 410.589 111.648H415.453ZM386.909 71.2C381.277 71.2 376.84 73.2053 373.597 77.216C370.44 81.2267 368.648 87.1573 368.221 95.008H405.213C405.042 87.1573 403.378 81.2267 400.221 77.216C397.064 73.2053 392.626 71.2 386.909 71.2ZM495.972 120.864C495.972 124.875 495.119 127.861 493.412 129.824C491.705 131.701 489.487 132.768 486.756 133.024C484.367 133.195 482.148 132.853 480.1 132C477.881 131.317 476.132 130.208 474.852 128.672C473.572 127.136 472.676 125.216 472.164 122.912H471.524C469.135 125.984 466.148 128.416 462.564 130.208C459.065 131.915 455.097 132.853 450.66 133.024C448.783 133.195 446.863 133.195 444.9 133.024C440.121 132.427 436.281 130.805 433.38 128.16C430.564 125.429 429.156 121.973 429.156 117.792C429.156 114.123 430.052 110.965 431.844 108.32C433.721 105.675 437.177 103.456 442.212 101.664C443.492 101.152 444.729 100.725 445.924 100.384C451.727 98.5067 456.335 96.9707 459.748 95.776C463.161 94.496 465.679 93.4293 467.3 92.576C468.921 91.7227 469.945 90.8267 470.372 89.888C470.884 88.9493 471.14 87.84 471.14 86.56C471.14 86.304 471.14 86.048 471.14 85.792C471.14 85.4507 471.097 85.1947 471.012 85.024C470.841 82.464 470.159 80.16 468.964 78.112C467.769 76.064 465.935 74.4427 463.46 73.248C461.071 72.0533 457.999 71.456 454.244 71.456C453.903 71.456 453.561 71.456 453.22 71.456C452.879 71.456 452.537 71.4987 452.196 71.584C448.783 71.84 445.967 72.608 443.748 73.888C441.615 75.0827 439.951 76.3627 438.756 77.728C439.012 77.8133 439.268 77.8987 439.524 77.984C439.78 77.984 439.993 78.0267 440.164 78.112C441.444 78.2827 442.468 78.88 443.236 79.904C444.004 80.8427 444.388 81.952 444.388 83.232C444.388 85.3653 443.705 86.944 442.34 87.968C440.975 88.992 439.396 89.504 437.604 89.504C437.263 89.504 436.921 89.4613 436.58 89.376C436.324 89.2907 436.068 89.2053 435.812 89.12C434.447 88.864 433.295 88.1813 432.356 87.072C431.417 85.9627 430.948 84.512 430.948 82.72C430.948 82.6347 430.948 82.5493 430.948 82.464C430.948 82.3787 430.948 82.2933 430.948 82.208C431.033 79.9893 432.143 77.6853 434.276 75.296C436.409 72.9067 439.396 70.944 443.236 69.408C447.161 67.7867 451.769 66.976 457.06 66.976C465.508 66.976 471.865 68.7253 476.132 72.224C480.399 75.7227 482.575 81.3973 482.66 89.248C482.745 89.5893 482.788 89.9733 482.788 90.4C482.788 90.8267 482.788 91.2533 482.788 91.68V121.888C482.788 124.192 483.172 125.856 483.94 126.88C484.708 127.904 485.732 128.416 487.012 128.416C487.268 128.416 487.481 128.416 487.652 128.416C487.823 128.331 488.036 128.203 488.292 128.032C489.145 127.776 489.828 127.264 490.34 126.496C490.937 125.643 491.364 124.491 491.62 123.04C491.62 122.699 491.62 122.315 491.62 121.888C491.705 121.461 491.748 120.992 491.748 120.48V116.896H495.972V120.864ZM453.22 127.776C457.316 127.776 460.9 126.795 463.972 124.832C467.044 122.784 469.135 120.139 470.244 116.896C470.5 116.043 470.713 115.147 470.884 114.208C471.055 113.269 471.14 112.331 471.14 111.392V95.392C468.495 96.8427 465.721 98.08 462.82 99.104C460.004 100.043 457.273 100.981 454.628 101.92C452.068 102.773 449.721 103.797 447.588 104.992C445.54 106.101 443.919 107.552 442.724 109.344C441.529 111.051 440.932 113.269 440.932 116C440.932 120.011 442.084 122.997 444.388 124.96C446.692 126.837 449.636 127.776 453.22 127.776ZM554.818 78.24L534.082 132H524.226L503.106 77.728C502.338 75.5947 501.57 74.1867 500.802 73.504C500.119 72.8213 499.01 72.48 497.474 72.48H493.378V68.256H523.842V72.48H518.85C516.887 72.48 515.65 72.9067 515.138 73.76C514.711 74.528 514.839 75.808 515.522 77.6L532.674 123.424L549.826 77.6C550.594 75.552 550.637 74.1867 549.954 73.504C549.357 72.8213 548.162 72.48 546.37 72.48H541.634V68.256H564.674V72.48H561.474C559.597 72.48 558.231 72.9067 557.378 73.76C556.61 74.528 555.757 76.0213 554.818 78.24ZM628.703 111.648C627.252 118.645 624.18 124.021 619.487 127.776C614.794 131.445 608.607 133.28 600.927 133.28C594.954 133.28 589.535 132 584.671 129.44C579.892 126.795 576.095 122.997 573.279 118.048C570.463 113.099 569.055 107.125 569.055 100.128C569.055 93.1307 570.42 87.1573 573.151 82.208C575.882 77.2587 579.594 73.504 584.287 70.944C588.98 68.2987 594.228 66.976 600.031 66.976C605.578 66.976 610.57 68.2133 615.007 70.688C619.53 73.1627 623.071 76.7893 625.631 81.568C628.276 86.2613 629.599 92.1493 629.599 99.232H581.215C581.215 99.744 581.215 100.213 581.215 100.64C581.3 101.067 581.343 101.493 581.343 101.92C581.514 110.624 583.434 117.28 587.103 121.888C590.858 126.411 596.02 128.672 602.591 128.672C603.274 128.672 603.914 128.672 604.511 128.672C605.194 128.587 605.791 128.501 606.303 128.416C610.996 127.904 614.794 126.283 617.695 123.552C620.596 120.736 622.644 116.768 623.839 111.648H628.703ZM600.159 71.2C594.527 71.2 590.09 73.2053 586.847 77.216C583.69 81.2267 581.898 87.1573 581.471 95.008H618.463C618.292 87.1573 616.628 81.2267 613.471 77.216C610.314 73.2053 605.876 71.2 600.159 71.2Z" fill="#ECEDEE"/>
</svg>
